HIERARCHY
ROOT Hips
{
 OFFSET 0.000000 0.000000 0.000000
 CHANNELS 6 Xposition Yposition Zposition Yrotation Xrotation Zrotation
 JOINT Chest
 {
  OFFSET 0.000000 11.395451 -0.039534
  CHANNELS 3 Yrotation Xrotation Zrotation
  JOINT Chest2
  {
   OFFSET 0.000000 9.398669 0.071813
   CHANNELS 3 Yrotation Xrotation Zrotation
   JOINT Chest3
   {
    OFFSET 0.000000 8.489801 0.000000
    CHANNELS 3 Yrotation Xrotation Zrotation
    JOINT Chest4
    {
     OFFSET 0.000000 8.489801 0.000000
     CHANNELS 3 Yrotation Xrotation Zrotation
     JOINT Neck
     {
      OFFSET 0.000000 12.404889 0.000000
      CHANNELS 3 Yrotation Xrotation Zrotation
      JOINT Head
      {
       OFFSET 0.000000 8.903270 0.092239
       CHANNELS 3 Yrotation Xrotation Zrotation
       End Site
       {
        OFFSET 0.000000 17.592497 0.007158
       }
      }
     }
     JOINT RightCollar
     {
      OFFSET -3.196775 6.966722 0.000000
      CHANNELS 3 Yrotation Xrotation Zrotation
      JOINT RightShoulder
      {
       OFFSET -15.955896 0.000000 0.000000
       CHANNELS 3 Yrotation Xrotation Zrotation
       JOINT RightElbow
       {
        OFFSET -24.792472 0.000000 0.000000
        CHANNELS 3 Yrotation Xrotation Zrotation
        JOINT RightWrist
        {
         OFFSET -20.900115 0.000000 0.025002
         CHANNELS 3 Yrotation Xrotation Zrotation
         End Site
         {
          OFFSET -16.056692 0.000000 0.000000
         }
        }
       }
      }
     }
     JOINT LeftCollar
     {
      OFFSET 3.196775 6.966722 0.000000
      CHANNELS 3 Yrotation Xrotation Zrotation
      JOINT LeftShoulder
      {
       OFFSET 15.955896 0.000000 0.000000
       CHANNELS 3 Yrotation Xrotation Zrotation
       JOINT LeftElbow
       {
        OFFSET 24.792472 0.000000 0.000000
        CHANNELS 3 Yrotation Xrotation Zrotation
        JOINT LeftWrist
        {
         OFFSET 20.900115 0.000000 0.025002
         CHANNELS 3 Yrotation Xrotation Zrotation
         End Site
         {
          OFFSET 16.056692 0.000000 0.000000
         }
        }
       }
      }
     }
    }
   }
  }
 }
 JOINT RightHip
 {
  OFFSET -9.568995 0.193718 0.019767
  CHANNELS 3 Yrotation Xrotation Zrotation
  JOINT RightKnee
  {
   OFFSET 0.000000 -56.649296 0.015402
   CHANNELS 3 Yrotation Xrotation Zrotation
   JOINT RightAnkle
   {
    OFFSET 0.000000 -41.365147 0.021264
    CHANNELS 3 Yrotation Xrotation Zrotation
    JOINT RightToe
    {
     OFFSET 0.000000 -7.465940 17.672538
     CHANNELS 3 Yrotation Xrotation Zrotation
     End Site
     {
      OFFSET 0.000000 -1.736315 7.837145
     }
    }
   }
  }
 }
 JOINT LeftHip
 {
  OFFSET 9.568995 0.193718 0.019767
  CHANNELS 3 Yrotation Xrotation Zrotation
  JOINT LeftKnee
  {
   OFFSET 0.000000 -56.649296 0.015402
   CHANNELS 3 Yrotation Xrotation Zrotation
   JOINT LeftAnkle
   {
    OFFSET 0.000000 -41.365147 0.021264
    CHANNELS 3 Yrotation Xrotation Zrotation
    JOINT LeftToe
    {
     OFFSET 0.000000 -7.465940 17.672538
     CHANNELS 3 Yrotation Xrotation Zrotation
     End Site
     {
      OFFSET 0.000000 -1.736315 7.837145
     }
    }
   }
  }
 }
}
MOTION
Frames: 17
Frame Time: 0.016667
-10.113837 45.304214 69.340607 56.137336 2.530436 -0.252523 -1.586661 8.653093 1.815338 -0.737159 3.839883 0.834185 -0.737217 3.840031 0.834223 -0.557989 2.879115 0.630093 3.665973 15.973230 0.940508 6.484510 -6.485344 0.417524 7.971467 5.666734 8.865544 11.095015 -25.136435 67.003791 11.383721 3.780313 -2.141659 1.320739 -2.673987 -3.463017 -2.189236 8.189185 -8.054994 -7.930598 -18.104329 -73.889991 1.971184 8.813674 5.933506 1.185107 2.883645 -2.357467 11.431071 -13.693913 -13.853034 20.586025 24.201666 -1.791610 16.217421 -6.044616 6.492582 -0.944528 -16.077392 6.379120 0.746129 -16.570099 4.902418 -13.771865 27.318656 0.730380 0.663650 -10.836640 -7.699214 0.031674 -3.822897 -0.928828
-9.851845 45.428514 67.637784 54.398044 2.948333 -0.538072 -1.600326 8.822700 1.887382 -0.745063 3.914683 0.866782 -0.745063 3.914683 0.866782 -0.564141 2.934968 0.654614 3.250993 15.991282 1.153285 5.633306 -6.472728 0.964433 7.927514 5.843794 8.760191 9.616460 -25.774220 67.887531 11.860665 1.123244 -3.851729 1.606566 -2.939478 -4.662237 -2.207348 8.424318 -7.976403 -9.044343 -19.064282 -72.920932 2.056934 9.429961 6.327805 1.630592 3.246074 -2.394715 11.059120 -15.377508 -13.577868 17.138212 25.398868 -1.840532 12.738952 -3.923830 5.343689 -1.190410 -15.563222 9.161071 2.049897 -17.414145 4.091455 -14.744814 27.864541 0.568108 2.029953 -10.591961 -7.810823 0.011303 -3.839982 -0.337176
-9.689282 45.556182 66.036310 52.208520 3.280303 -0.872862 -1.277841 9.046846 1.920348 -0.603503 4.015040 0.875635 -0.603444 4.014786 0.875587 -0.458133 3.010090 0.660365 2.850344 16.015349 1.370546 4.808075 -6.442393 1.515085 7.947448 5.818544 8.708415 8.389091 -26.104961 68.677239 12.580009 -2.266389 -5.249537 2.025524 -3.361539 -5.885352 -2.195068 8.363908 -7.735541 -9.598626 -19.945791 -72.556743 1.943309 9.714450 7.161352 2.043784 3.713820 -1.870549 10.858513 -17.082170 -13.076370 12.509839 26.481985 -2.294828 10.127139 -2.390285 3.691362 -0.983030 -12.765613 12.179814 1.741372 -17.971332 4.185103 -12.754487 28.190484 0.503771 2.429932 -10.492243 -7.610491 -0.002985 -3.748931 0.091321
-9.578731 45.702791 64.524563 49.758929 3.551491 -1.237705 -0.737934 9.276890 1.928174 -0.365310 4.119677 0.868818 -0.365208 4.119531 0.868791 -0.279599 3.089060 0.653762 2.457484 16.071299 1.569730 4.004017 -6.346457 2.030003 8.005884 5.688720 8.694550 7.327906 -26.210843 69.416626 13.430577 -6.070251 -6.428375 2.528265 -3.863559 -7.071494 -2.147176 8.149766 -7.415396 -9.723948 -20.807366 -72.571534 1.689136 9.809848 8.215774 2.414488 4.202463 -0.962995 10.663737 -18.761583 -12.369741 7.116886 27.453050 -3.025039 8.017195 -1.498322 1.751251 -0.267221 -8.444149 14.473768 0.530702 -18.315040 4.799613 -9.265334 28.343542 0.535536 2.420143 -10.392445 -7.347734 -0.014634 -3.582650 0.472463
-9.374792 45.855814 63.105306 47.225482 3.745710 -1.581435 -0.221185 9.429246 1.902509 -0.136741 4.189849 0.847117 -0.136741 4.189849 0.847117 -0.108327 3.142205 0.635993 2.160416 16.168817 1.704991 3.402083 -6.169105 2.390376 8.033995 5.615056 8.716647 6.683988 -26.181700 69.854298 13.947827 -9.383282 -7.167659 2.926061 -4.316290 -7.874889 -2.046484 7.993114 -7.179506 -9.422230 -21.505598 -72.682986 1.237052 9.496058 8.899152 2.479136 4.340028 0.218199 10.339130 -20.145250 -11.632307 2.308681 28.323434 -3.519565 6.535579 -1.537413 0.399818 0.456123 -4.441626 14.276255 -0.056113 -18.460163 5.155493 -6.672765 28.297773 0.609924 2.856176 -10.256280 -7.136204 -0.022643 -3.429030 0.769214
-8.990696 46.013560 61.784899 44.609213 3.847641 -1.879207 0.219884 9.446989 1.847292 0.059434 4.199312 0.813605 0.059317 4.199202 0.813588 0.038800 3.149420 0.609503 1.992437 16.347802 1.735669 3.079591 -5.837640 2.509567 7.988374 5.676226 8.782860 6.675255 -26.019115 69.788694 13.836143 -12.075336 -7.345685 3.066806 -4.687248 -8.175883 -1.863350 7.964931 -7.125277 -8.521879 -21.967643 -72.850272 0.449760 8.629597 8.918820 2.034916 3.946695 1.880655 9.934950 -21.104375 -11.022021 -1.479432 29.169848 -3.448362 6.083650 -2.511486 0.280753 0.595066 -1.863367 10.286838 0.741183 -18.419752 4.835428 -6.186415 28.024318 0.704357 4.288360 -10.075036 -7.024103 -0.026594 -3.326982 0.924676
-8.513212 46.177720 60.556983 41.911223 3.875921 -2.146115 0.638675 9.385398 1.770742 0.246795 4.173390 0.771259 0.246717 4.173230 0.771234 0.179637 3.130146 0.576471 1.913196 16.564002 1.691343 2.949549 -5.434930 2.458111 7.909869 5.795643 8.879081 7.083991 -25.745068 69.408900 13.245033 -14.262315 -7.083480 2.986969 -4.990206 -8.140900 -1.632158 7.988614 -7.159566 -7.192098 -22.251694 -73.139108 -0.543725 7.330724 8.591218 1.204994 3.245512 3.827095 9.428652 -21.770588 -10.425751 -4.613712 30.073833 -3.014343 6.385525 -3.908661 0.981192 0.295592 -0.502905 4.372383 2.171824 -18.237285 4.221382 -6.613532 27.604831 0.827395 6.164262 -9.862146 -6.951640 -0.028197 -3.238416 0.996124
-8.057247 46.340844 59.405237 39.307907 3.871110 -2.391027 0.953367 9.330580 1.672201 0.388541 4.150317 0.721430 0.388541 4.150317 0.721430 0.286372 3.113203 0.538193 1.901419 16.702460 1.634053 2.948084 -5.177148 2.357799 7.855173 5.899551 8.970036 7.503606 -25.480479 69.058136 12.365860 -15.414485 -6.532202 2.741160 -5.164658 -7.875497 -1.435269 8.053998 -7.166305 -5.954188 -22.407386 -73.413066 -1.414742 5.773359 8.239316 0.275717 2.421697 5.352371 8.587229 -22.258739 -9.624857 -6.921748 31.104253 -2.450309 6.547027 -5.164977 1.768854 0.000000 0.000000 0.000000 3.500220 -18.048097 3.721305 -6.756713 27.175920 0.936390 7.686915 -9.627299 -6.872864 -0.030582 -3.135730 1.118064
-7.663997 46.507121 58.332517 36.849997 3.834494 -2.633059 1.117898 9.317904 1.545582 0.464053 4.145182 0.662092 0.464071 4.145291 0.662104 0.343414 3.109538 0.493215 1.981610 16.699827 1.588714 3.112174 -5.182313 2.245311 7.850892 5.957174 9.048906 7.822799 -25.293755 68.821470 11.146256 -15.185460 -5.667211 2.285587 -5.167434 -7.417739 -1.297574 8.178060 -7.086761 -4.898867 -22.428910 -73.688673 -2.172183 3.795769 7.921600 -0.731421 1.370477 6.179226 7.188156 -22.565267 -8.467858 -7.973091 32.300517 -1.647260 6.170911 -6.200567 2.489969 -0.084041 0.108738 -1.106390 4.489452 -17.884146 3.524243 -6.092398 26.764213 1.009158 8.451540 -9.368433 -6.782101 -0.034633 -3.001745 1.363642
-7.292266 46.672363 57.335968 34.487338 3.768395 -2.849486 1.178144 9.309563 1.395504 0.493797 4.141147 0.594403 0.493822 4.141173 0.594400 0.366187 3.106377 0.442252 2.134715 16.620944 1.540705 3.413265 -5.327866 2.100969 7.871323 6.000031 9.125015 8.153920 -25.114658 68.614354 9.715341 -13.885547 -4.623575 1.669895 -5.017150 -6.739545 -1.195939 8.347002 -6.985410 -3.940810 -22.327732 -73.953667 -2.813759 1.567075 7.582816 -1.795026 0.151233 6.597763 5.469871 -22.638007 -7.137585 -8.166728 33.613599 -0.681822 5.645406 -7.159142 3.260661 -0.045159 0.032600 -0.555054 5.378917 -17.701642 3.441757 -5.145680 26.321073 1.056421 8.865934 -9.085330 -6.695048 -0.038051 -2.852766 1.659262
-6.933370 46.816549 56.390696 32.243975 3.718447 -2.992127 1.189362 9.282665 1.233033 0.502075 4.128753 0.522295 0.502075 4.128753 0.522295 0.372859 3.096999 0.388155 2.275130 16.544962 1.494138 3.690842 -5.467252 1.963497 7.896187 6.046068 9.190751 8.427379 -24.850085 68.516863 8.558450 -12.010178 -3.773623 1.107623 -4.755939 -5.838462 -1.140288 8.503830 -6.929363 -3.334242 -22.190318 -74.025289 -3.019906 -0.225498 7.335243 -2.530369 -0.866524 6.771022 3.882855 -22.539513 -5.902528 -8.627117 34.890392 -0.102191 5.212280 -7.990875 3.724751 0.000000 0.000000 0.000000 6.149404 -17.520091 3.318241 -4.292317 25.838393 1.073699 9.352930 -8.795924 -6.602723 -0.039775 -2.711409 1.919284
-6.577850 46.932910 55.502515 30.129128 3.693918 -3.030181 1.162707 9.224402 1.048266 0.494081 4.102403 0.441171 0.494050 4.102445 0.441180 0.367392 3.077221 0.327428 2.371807 16.502803 1.461465 3.882212 -5.544242 1.867655 7.916432 6.098180 9.243941 8.642676 -24.425593 68.561695 7.822249 -9.551063 -3.241562 0.664224 -4.355788 -4.581781 -1.145570 8.614962 -6.938626 -3.229359 -21.998973 -73.757250 -2.603384 -1.390709 7.117914 -2.781545 -1.614843 6.731128 2.558804 -22.292165 -4.843579 -9.953249 36.112326 -0.259110 4.969659 -8.755506 3.631964 0.000000 0.000000 0.000000 6.757360 -17.306668 3.097430 -3.695227 25.277113 1.043213 10.108617 -8.503698 -6.495924 -0.040162 -2.582704 2.106354
-6.235165 47.028216 54.665611 28.133118 3.695524 -2.997417 1.087634 9.146500 0.853547 0.464886 4.067094 0.356610 0.464858 4.067093 0.356612 0.346102 3.050593 0.264250 2.455056 16.463534 1.428680 4.048714 -5.615918 1.776280 7.941016 6.152282 9.286583 8.800509 -23.906293 68.703897 7.364803 -6.550612 -2.893665 0.323229 -3.836436 -3.099963 -1.196113 8.707777 -6.990787 -3.471059 -21.763181 -73.298066 -1.760410 -2.111932 6.914973 -2.688950 -2.174546 6.426674 1.381188 -21.916018 -3.905500 -11.595016 37.213977 -0.810621 4.782432 -9.468602 3.210388 0.000000 0.000000 0.000000 7.244694 -17.096537 2.835009 -3.188651 24.679502 0.990545 10.935716 -8.205490 -6.380646 -0.039895 -2.461844 2.257780
-5.925005 47.102754 53.837655 26.251169 3.755703 -2.946953 0.986546 9.066320 0.693517 0.423461 4.030933 0.287904 0.423461 4.030933 0.287904 0.315563 3.023402 0.213042 2.529635 16.411312 1.356205 4.213222 -5.710754 1.613971 7.976328 6.214912 9.316166 8.832587 -23.407895 68.905514 7.179761 -3.607999 -2.625599 0.128859 -3.339126 -1.785671 -1.255802 8.813390 -7.086963 -3.856577 -21.619573 -72.893470 -0.743037 -2.269552 6.906880 -2.318220 -2.394649 5.893488 0.415499 -21.513113 -3.129702 -12.930789 37.997805 -1.221569 4.532979 -9.991422 2.797911 0.000000 0.000000 0.000000 7.719064 -17.015092 2.548522 -2.655421 24.163500 0.976033 11.666113 -7.911595 -6.268614 -0.039421 -2.357273 2.400350
-5.654238 47.155748 53.007242 24.515627 3.875629 -2.898711 0.852245 8.989364 0.589192 0.366133 3.996424 0.244484 0.366135 3.996477 0.244491 0.272890 2.997543 0.180902 2.592494 16.343811 1.223381 4.378076 -5.832157 1.343169 8.030868 6.292668 9.326920 8.655636 -22.945490 69.196403 7.321347 -0.797216 -2.413178 0.101879 -2.901089 -0.737466 -1.313293 8.944571 -7.253854 -4.413311 -21.651187 -72.562055 0.548030 -1.672483 7.235104 -1.647613 -2.120205 5.022222 -0.245813 -21.110530 -2.590827 -13.721380 38.474232 -1.171694 4.073865 -10.178141 2.368175 0.016902 0.057478 0.185934 8.239867 -17.101935 2.237844 -2.053597 23.772938 1.028134 12.202455 -7.621429 -6.155382 -0.038692 -2.270525 2.538905
-5.415995 47.187974 52.185777 22.894006 4.054783 -2.837737 0.691746 8.914494 0.519454 0.296463 3.962832 0.216830 0.296453 3.962877 0.216836 0.220836 2.972295 0.160642 2.647655 16.259734 1.051858 4.543360 -5.982731 1.002374 8.095618 6.378057 9.323891 8.353971 -22.501005 69.543534 7.707601 1.950421 -2.218563 0.188632 -2.512342 0.146661 -1.381812 9.083625 -7.466086 -5.119378 -21.785933 -72.262852 2.050034 -0.525857 7.756150 -0.782082 -1.471669 3.889507 -0.702524 -20.713891 -2.204125 -14.131506 38.679114 -0.882561 3.531966 -10.176351 1.897655 0.035643 0.124292 0.368556 8.747892 -17.316558 1.911271 -1.425341 23.465756 1.111669 12.642577 -7.334343 -6.048090 -0.037922 -2.200444 2.669001
-5.209363 47.202039 51.365147 21.284193 4.320147 -2.767616 0.548121 8.850574 0.464310 0.233980 3.934131 0.195242 0.233980 3.934131 0.195242 0.174158 2.950674 0.144866 2.711154 16.144653 0.866740 4.729943 -6.189600 0.631959 8.150843 6.456787 9.321019 8.107903 -22.147124 69.827301 8.128689 4.256155 -1.914967 0.264891 -2.249480 0.778292 -1.462605 9.220022 -7.647249 -5.701766 -21.948730 -72.148638 3.258088 0.693256 8.272266 0.073416 -0.736567 2.830576 -1.180125 -20.379221 -1.760709 -14.111603 38.487532 -0.596553 3.227376 -10.211930 1.720298 0.000000 0.000000 0.000000 9.173145 -17.663265 1.603820 -0.780218 23.230702 1.187369 13.111335 -7.060743 -5.977100 -0.037788 -2.151255 2.803612
